<svg xmlns="http://www.w3.org/2000/svg" viewBox="0 0 1200 230" width="1200" height="280">
	<style>
		tspan { white-space:pre }
	</style>
	<path id="BitMaido " fill="#10d876" d="M124.8 208L21.36 208L21.36 28L114.72 28Q140.64 28 151.68 38.08Q162.72 48.16 162.72 67.36Q162.72 86.8 155.76 97.36Q148.8 107.68 136.8 111.04L136.8 112.72Q171.6 118.72 171.6 160.24Q171.6 181.84 160.08 195.04Q148.8 208 124.8 208ZM101.52 136.24L78.96 136.24L78.96 165.76L101.04 165.76Q113.28 165.76 113.28 150.88Q113.28 136.24 101.52 136.24ZM97.2 67.36L78.96 67.36L78.96 94.24L96.72 94.24Q107.76 94.24 107.76 80.8Q107.76 67.36 97.2 67.36ZM249.36 64L249.36 208L191.76 208L191.76 71.2L249.36 64ZM188.64 36.88Q188.64 30.4 190.08 26.08Q191.52 21.52 195.12 18.88Q198.72 16 204.96 14.8Q211.2 13.6 220.8 13.6Q230.4 13.6 236.4 14.8Q242.64 16 246.24 18.88Q249.84 21.52 251.28 26.08Q252.72 30.4 252.72 36.88Q252.72 43.36 251.28 47.68Q249.84 52 246.24 54.88Q242.64 57.52 236.4 58.72Q230.4 59.68 220.8 59.68Q213.84 59.68 207.84 59.2Q202.08 58.72 197.76 56.56Q193.44 54.16 191.04 49.6Q188.64 45.04 188.64 36.88ZM283.92 180.88L283.92 101.2L269.52 101.2L269.52 64L283.92 64L283.92 40.96L341.52 26.56L341.52 64L361.44 64L361.44 101.2L341.52 101.2L341.52 166.72Q345.12 167.44 349.44 168.16Q353.76 168.64 358.56 168.88L355.92 211.12Q316.56 211.12 304.56 206.8Q294.48 203.2 289.2 197.68Q283.92 191.92 283.92 180.88ZM436.08 208L439.44 120.64L441.12 120.64L463.44 208L507.36 208L529.44 120.64L531.36 120.64L534.72 208L594.96 208L584.16 28L508.8 28L486.48 119.68L484.32 119.68L462 28L386.88 28L375.84 208L436.08 208ZM684.72 59.68Q753.84 59.68 753.84 107.2L753.84 208L725.04 208L708.72 191.68Q704.4 196.48 698.4 200.32Q692.64 204.16 685.92 206.8Q679.2 209.44 672.24 210.88Q665.28 212.32 658.8 212.32Q646.56 212.32 636.72 209.92Q627.12 207.28 620.4 201.76Q613.68 196.24 610.08 187.12Q606.48 178 606.48 164.8Q606.48 112.96 684.72 112.96L696.24 112.96L696.24 102.64Q691.68 102.4 687.84 102.16Q684.24 101.92 681.12 101.92Q648.72 101.92 625.2 109.84L618.24 68.56Q647.04 59.68 684.72 59.68ZM664.56 158.56L664.56 170.32L676.56 170.32Q689.04 170.32 692.88 167.44Q696.24 164.32 696.24 160L696.24 146.32L684.48 146.32Q674.16 146.32 669.36 148.48Q664.56 150.64 664.56 158.56ZM837.36 64L837.36 208L779.76 208L779.76 71.2L837.36 64ZM776.64 36.88Q776.64 30.4 778.08 26.08Q779.52 21.52 783.12 18.88Q786.72 16 792.96 14.8Q799.2 13.6 808.8 13.6Q818.4 13.6 824.4 14.8Q830.64 16 834.24 18.88Q837.84 21.52 839.28 26.08Q840.72 30.4 840.72 36.88Q840.72 43.36 839.28 47.68Q837.84 52 834.24 54.88Q830.64 57.52 824.4 58.72Q818.4 59.68 808.8 59.68Q801.84 59.68 795.84 59.2Q790.08 58.72 785.76 56.56Q781.44 54.16 779.04 49.6Q776.64 45.04 776.64 36.88ZM951.12 20.8L1008.72 16.48L1008.72 208L979.92 208L967.44 196Q955.2 212.32 922.32 212.32Q905.04 212.32 893.28 206.08Q881.52 199.84 874.08 189.52Q866.88 178.96 863.52 165.04Q860.4 151.12 860.4 136Q860.4 121.6 863.28 108.64Q866.16 95.44 872.88 85.6Q879.6 75.76 890.64 70Q901.68 64 918 64L951.12 64L951.12 20.8ZM922.32 113.92L922.32 170.32L931.2 170.32Q941.04 170.32 945.6 168.64Q950.4 166.72 951.12 160L951.12 101.68L942.24 101.68Q931.68 101.68 926.88 103.84Q922.32 106 922.32 113.92ZM1031.76 136Q1031.76 97.36 1049.76 78.64Q1067.76 59.68 1108.08 59.68Q1148.4 59.68 1166.4 78.64Q1184.4 97.36 1184.4 136Q1184.4 174.64 1166.4 193.6Q1148.4 212.32 1108.08 212.32Q1068.72 212.32 1050.24 193.84Q1031.76 175.36 1031.76 136ZM1093.68 113.92L1093.68 170.32L1102.56 170.32Q1113.12 170.32 1117.68 168.16Q1122.48 166 1122.48 158.08L1122.48 101.68L1113.6 101.68Q1103.04 101.68 1098.24 103.84Q1093.68 106 1093.68 113.92Z" />
</svg>